HIERARCHY
ROOT root
{
	OFFSET 0.000000 0.000000 0.000000
	CHANNELS 6 Xposition Yposition Zposition Zrotation Yrotation Xrotation
	JOINT lhip
	{
		OFFSET 0.058581 -0.082280 -0.017664
		CHANNELS 3 Zrotation Yrotation Xrotation
		JOINT lknee
		{
			OFFSET 0.043451 -0.386469 0.008037
			CHANNELS 3 Zrotation Yrotation Xrotation
			JOINT lankle
			{
				OFFSET -0.014790 -0.426874 -0.037428
				CHANNELS 3 Zrotation Yrotation Xrotation
				JOINT ltoe
				{
					OFFSET 0.041054 -0.060286 0.122042
					CHANNELS 3 Zrotation Yrotation Xrotation
					End Site
					{
						OFFSET 0.000000 0.000000 0.000000
					}
				}
			}
		}
	}
	JOINT rhip
	{
		OFFSET -0.060310 -0.090513 -0.013543
		CHANNELS 3 Zrotation Yrotation Xrotation
		JOINT rknee
		{
			OFFSET -0.043257 -0.383688 -0.004843
			CHANNELS 3 Zrotation Yrotation Xrotation
			JOINT rankle
			{
				OFFSET 0.019056 -0.420046 -0.034562
				CHANNELS 3 Zrotation Yrotation Xrotation
				JOINT rtoe
				{
					OFFSET -0.034840 -0.062106 0.130323
					CHANNELS 3 Zrotation Yrotation Xrotation
					End Site
					{
						OFFSET 0.000000 0.000000 0.000000
					}
				}
			}
		}
	}
	JOINT lowerback
	{
		OFFSET 0.004439 0.124404 -0.038385
		CHANNELS 3 Zrotation Yrotation Xrotation
		JOINT upperback
		{
			OFFSET 0.004488 0.137956 0.026820
			CHANNELS 3 Zrotation Yrotation Xrotation
			JOINT chest
			{
				OFFSET -0.002265 0.056032 0.002855
				CHANNELS 3 Zrotation Yrotation Xrotation
				JOINT lowerneck
				{
					OFFSET -0.013390 0.211636 -0.033468
					CHANNELS 3 Zrotation Yrotation Xrotation
					JOINT upperneck
					{
						OFFSET 0.010113 0.088937 0.050410
						CHANNELS 3 Zrotation Yrotation Xrotation
						End Site
						{
							OFFSET 0.000000 0.000000 0.000000
						}
					}
				}
				JOINT lclavicle
				{
					OFFSET 0.071702 0.114000 -0.018898
					CHANNELS 3 Zrotation Yrotation Xrotation
					JOINT lshoulder
					{
						OFFSET 0.122921 0.045205 -0.019046
						CHANNELS 3 Zrotation Yrotation Xrotation
						JOINT lelbow
						{
							OFFSET 0.255332 -0.015649 -0.022946
							CHANNELS 3 Zrotation Yrotation Xrotation
							JOINT lwrist
							{
								OFFSET 0.265709 0.012698 -0.007375
								CHANNELS 3 Zrotation Yrotation Xrotation
								End Site
								{
									OFFSET 0.000000 0.000000 0.000000
								}
							}
						}
					}
				}
				JOINT rclavicle
				{
					OFFSET -0.082954 0.112472 -0.023707
					CHANNELS 3 Zrotation Yrotation Xrotation
					JOINT rshoulder
					{
						OFFSET -0.113228 0.046853 -0.008472
						CHANNELS 3 Zrotation Yrotation Xrotation
						JOINT relbow
						{
							OFFSET -0.260127 -0.014369 -0.031269
							CHANNELS 3 Zrotation Yrotation Xrotation
							JOINT rwrist
							{
								OFFSET -0.269108 0.006794 -0.006027
								CHANNELS 3 Zrotation Yrotation Xrotation
								End Site
								{
									OFFSET 0.000000 0.000000 0.000000
								}
							}
						}
					}
				}
			}
		}
	}
}
MOTION
Frames: 9
Frame Time: 0.033333
0.358041 0.168892 0.990481 86.712191 0.409279 90.022215 7.770776 5.757865 6.419905 -4.091614 0.196645 -6.204434 -0.311399 9.082931 -2.948609 0.000000 -0.000000 0.000000 -7.037663 -3.203808 1.504010 2.286778 -0.512282 0.005810 5.861905 -3.615989 -5.750204 0.000000 -0.000000 0.000000 -4.153109 2.883285 -8.130606 2.097682 -1.484981 10.213379 -0.257376 0.815588 -2.749560 3.683407 4.626759 7.894097 4.268231 -0.699094 0.140572 -27.280062 0.277371 -1.272983 -55.451880 -6.196002 18.787924 0.247937 -19.330457 10.474327 -2.914709 -14.437940 8.243026 30.225840 1.007284 3.668597 55.471192 3.405633 13.978475 -9.250100 23.659543 -4.809205 0.676381 9.240737 -2.568898 
0.357954 0.168850 0.990380 86.758566 0.413627 90.007969 7.749664 5.711636 6.420436 -4.065241 0.183063 -6.215767 -0.392205 9.113427 -2.941177 0.000000 -0.000000 0.000000 -7.026705 -3.107205 1.545661 2.299286 -0.459305 -0.094956 5.896397 -3.799450 -5.732841 0.000000 -0.000000 0.000000 -4.137049 2.784333 -7.962776 2.023081 -1.396539 9.710334 -0.134464 0.892456 -2.325553 3.642432 4.631006 7.383538 4.253669 -0.785901 0.757562 -26.992985 0.224851 -1.371647 -55.966094 -6.669322 18.448254 0.101288 -18.431182 10.926459 -3.077826 -14.639168 8.572548 29.957674 0.850522 3.686788 55.812363 3.642617 13.934486 -9.305943 23.553135 -4.610652 0.609520 9.256158 -2.519229 
0.357902 0.168765 0.990399 86.814838 0.410152 90.025346 7.722973 5.662170 6.390495 -4.044392 0.195950 -6.211733 -0.366013 9.110987 -2.956578 0.000000 -0.000000 0.000000 -7.022244 -3.101334 1.528158 2.291942 -0.459976 -0.108795 5.867632 -3.819288 -5.733453 0.000000 -0.000000 0.000000 -4.135936 2.787704 -7.954139 1.992488 -1.386965 9.637614 -0.130078 0.854071 -2.273465 3.699896 4.622261 7.293865 4.251615 -0.787958 0.905058 -26.987345 0.228447 -1.341375 -55.985064 -6.728372 18.384291 0.072274 -18.322457 10.960311 -3.074287 -14.676197 8.604686 29.903266 0.829904 3.721023 55.965051 3.697908 13.938031 -9.361201 23.512955 -4.625089 0.570751 9.242201 -2.594616 
0.357881 0.168597 0.990379 86.869401 0.403155 90.060881 7.716504 5.651184 6.355164 -4.066611 0.186036 -6.216574 -0.381528 9.075900 -2.968428 0.000000 -0.000000 0.000000 -7.011738 -3.112147 1.506908 2.281124 -0.470731 -0.146898 5.855749 -3.816100 -5.720855 0.000000 -0.000000 0.000000 -4.181126 2.818042 -7.944960 1.994734 -1.395656 9.565620 -0.120604 0.839107 -2.273603 3.720147 4.595690 7.213078 4.281981 -0.796907 1.115379 -26.933136 0.153269 -1.333788 -55.947171 -6.796545 18.442490 -0.254756 -18.007008 10.925227 -2.653685 -14.656130 8.402431 29.863340 0.777607 3.713205 56.080401 3.686547 13.963851 -9.313090 23.459366 -4.594777 0.324104 9.272014 -2.592366 
0.357846 0.168594 0.990371 86.907196 0.393618 90.064605 7.708077 5.642255 6.333978 -4.074211 0.177417 -6.197517 -0.382730 9.051932 -2.967176 0.000000 -0.000000 0.000000 -7.012685 -3.112848 1.505105 2.266835 -0.488889 -0.149365 5.835620 -3.827200 -5.721630 0.000000 -0.000000 0.000000 -4.195227 2.823631 -7.914227 1.988537 -1.403314 9.535804 -0.125879 0.842504 -2.285874 3.735713 4.563923 7.180494 4.287079 -0.811044 1.208197 -26.952702 0.100451 -1.343292 -55.868635 -6.828371 18.475806 -0.385790 -17.853094 10.910851 -2.502421 -14.686924 8.371150 29.900515 0.760757 3.721548 56.074618 3.668408 13.979922 -9.328363 23.474048 -4.623779 0.254528 9.321225 -2.586416 
0.357813 0.168626 0.990363 86.940900 0.385193 90.094806 7.693956 5.622840 6.310820 -4.082519 0.179945 -6.196558 -0.372203 9.046960 -2.959069 0.000000 -0.000000 0.000000 -7.010967 -3.074080 1.495078 2.250885 -0.521213 -0.180058 5.832321 -3.839772 -5.691705 0.000000 -0.000000 0.000000 -4.174496 2.825402 -7.915444 1.932073 -1.398267 9.633007 -0.152092 0.931563 -2.465982 3.797250 4.473644 7.262911 4.302606 -0.874142 1.270144 -26.905259 -0.039236 -1.261512 -55.873799 -6.751116 18.541133 -0.325154 -17.748892 10.683419 -2.524776 -14.751254 8.453587 29.735347 1.156644 4.018739 56.374941 3.430137 14.096226 -9.551783 23.431585 -5.171458 0.039474 9.487443 -2.878371 
0.357879 0.168715 0.990287 86.962466 0.371102 90.092094 7.678749 5.623317 6.340328 -4.080310 0.158326 -6.203214 -0.393693 9.060650 -3.009876 0.000000 -0.000000 0.000000 -7.024430 -3.043863 1.536063 2.238371 -0.521595 -0.208221 5.834296 -3.851856 -5.678628 0.000000 -0.000000 0.000000 -4.175854 2.829814 -7.921762 1.908823 -1.368564 9.758661 -0.174680 0.892013 -2.560107 3.870780 4.506529 7.258362 4.248005 -0.879446 1.363442 -26.865273 -0.029341 -1.242441 -55.898782 -6.705254 18.549903 -0.242922 -17.750847 10.533391 -2.563347 -14.736242 8.440131 29.647177 1.327294 4.126704 56.587209 3.346227 14.241657 -9.684454 23.428739 -5.479328 -0.139899 9.560668 -3.091006 
0.358019 0.168897 0.990221 87.009823 0.347623 90.068431 7.641974 5.625419 6.386440 -4.062419 0.109328 -6.214525 -0.397891 9.078026 -3.018060 0.000000 -0.000000 0.000000 -7.054421 -3.013535 1.602970 2.228517 -0.539079 -0.233539 5.803134 -3.890875 -5.665762 0.000000 -0.000000 0.000000 -4.201111 2.789198 -7.899183 1.911140 -1.364037 9.802023 -0.168021 0.909290 -2.576725 3.906897 4.524762 7.274342 4.204524 -0.868242 1.391775 -26.891813 0.021633 -1.268998 -55.913906 -6.690397 18.572955 -0.149062 -17.749769 10.527650 -2.519074 -14.663394 8.506257 29.612794 1.309055 4.081360 56.670655 3.301295 14.276629 -9.725160 23.492260 -5.498427 -0.259817 9.481245 -3.168279 
0.358037 0.168915 0.990154 87.024619 0.359701 90.072121 7.666344 5.615987 6.403099 -4.100621 0.118973 -6.250362 -0.381431 9.060026 -2.978367 0.000000 -0.000000 0.000000 -7.046428 -3.027965 1.607252 2.237402 -0.502295 -0.239133 5.785526 -3.918806 -5.656026 0.000000 -0.000000 0.000000 -4.218779 2.789317 -7.891884 1.964728 -1.381097 9.688357 -0.146704 0.824312 -2.414441 3.885081 4.537355 7.100587 4.119102 -0.792761 1.577090 -27.025925 0.202176 -1.333323 -55.798645 -6.832153 18.490163 -0.241469 -17.676203 10.821934 -2.421256 -14.601129 8.423001 29.816478 0.750591 3.710181 56.387718 3.604009 14.142143 -9.479483 23.534446 -4.853777 -0.073893 9.335492 -3.034681 
